<!-- <svg xmlns="http://www.w3.org/2000/svg" viewBox="0 0 841.9 595.3">
    <g fill="#22e66d">
        <path d="M666.3 296.5c0-32.5-40.7-63.3-103.1-82.4 14.4-63.6 8-114.2-20.2-130.4-6.5-3.8-14.1-5.6-22.4-5.6v22.3c4.6 0 8.3.9 11.4 2.6 13.6 7.8 19.5 37.5 14.9 75.7-1.1 9.4-2.9 19.3-5.1 29.4-19.6-4.8-41-8.5-63.5-10.9-13.5-18.5-27.5-35.3-41.6-50 32.6-30.3 63.2-46.9 84-46.9V78c-27.5 0-63.5 19.6-99.9 53.6-36.4-33.8-72.4-53.2-99.9-53.2v22.3c20.7 0 51.4 16.5 84 46.6-14 14.7-28 31.4-41.3 49.9-22.6 2.4-44 6.1-63.6 11-2.3-10-4-19.7-5.2-29-4.7-38.2 1.1-67.9 14.6-75.8 3-1.8 6.9-2.6 11.5-2.6V78.5c-8.4 0-16 1.8-22.6 5.6-28.1 16.2-34.4 66.7-19.9 130.1-62.2 19.2-102.7 49.9-102.7 82.3 0 32.5 40.7 63.3 103.1 82.4-14.4 63.6-8 114.2 20.2 130.4 6.5 3.8 14.1 5.6 22.5 5.6 27.5 0 63.5-19.6 99.9-53.6 36.4 33.8 72.4 53.2 99.9 53.2 8.4 0 16-1.8 22.6-5.6 28.1-16.2 34.4-66.7 19.9-130.1 62-19.1 102.5-49.9 102.5-82.3zm-130.2-66.7c-3.7 12.9-8.3 26.2-13.5 39.5-4.1-8-8.4-16-13.1-24-4.6-8-9.5-15.8-14.4-23.4 14.2 2.1 27.9 4.7 41 7.9zm-45.8 106.5c-7.8 13.5-15.8 26.3-24.1 38.2-14.9 1.3-30 2-45.2 2-15.1 0-30.2-.7-45-1.9-8.3-11.9-16.4-24.6-24.2-38-7.6-13.1-14.5-26.4-20.8-39.8 6.2-13.4 13.2-26.8 20.7-39.9 7.8-13.5 15.8-26.3 24.1-38.2 14.9-1.3 30-2 45.2-2 15.1 0 30.2.7 45 1.9 8.3 11.9 16.4 24.6 24.2 38 7.6 13.1 14.5 26.4 20.8 39.8-6.3 13.4-13.2 26.8-20.7 39.9zm32.3-13c5.4 13.4 10 26.8 13.8 39.8-13.1 3.2-26.9 5.9-41.2 8 4.9-7.7 9.8-15.6 14.4-23.7 4.6-8 8.9-16.1 13-24.1zM421.2 430c-9.3-9.6-18.6-20.3-27.8-32 9 .4 18.2.7 27.5.7 9.4 0 18.7-.2 27.8-.7-9 11.7-18.3 22.4-27.5 32zm-74.4-58.9c-14.2-2.1-27.9-4.7-41-7.9 3.7-12.9 8.3-26.2 13.5-39.5 4.1 8 8.4 16 13.1 24 4.7 8 9.5 15.8 14.4 23.4zM420.7 163c9.3 9.6 18.6 20.3 27.8 32-9-.4-18.2-.7-27.5-.7-9.4 0-18.7.2-27.8.7 9-11.7 18.3-22.4 27.5-32zm-74 58.9c-4.9 7.7-9.8 15.6-14.4 23.7-4.6 8-8.9 16-13 24-5.4-13.4-10-26.8-13.8-39.8 13.1-3.1 26.9-5.8 41.2-7.9zm-90.5 125.2c-35.4-15.1-58.3-34.9-58.3-50.6 0-15.7 22.9-35.6 58.3-50.6 8.6-3.7 18-7 27.7-10.1 5.7 19.6 13.2 40 22.5 60.9-9.2 20.8-16.6 41.1-22.2 60.6-9.9-3.1-19.3-6.5-28-10.2zM310 490c-13.6-7.8-19.5-37.5-14.9-75.7 1.1-9.4 2.9-19.3 5.1-29.4 19.6 4.8 41 8.5 63.5 10.9 13.5 18.5 27.5 35.3 41.6 50-32.6 30.3-63.2 46.9-84 46.9-4.5-.1-8.3-1-11.3-2.7zm237.2-76.2c4.7 38.2-1.1 67.9-14.6 75.8-3 1.8-6.9 2.6-11.5 2.6-20.7 0-51.4-16.5-84-46.6 14-14.7 28-31.4 41.3-49.9 22.6-2.4 44-6.1 63.6-11 2.3 10.1 4.1 19.8 5.2 29.1zm38.5-66.7c-8.6 3.7-18 7-27.7 10.1-5.7-19.6-13.2-40-22.5-60.9 9.2-20.8 16.6-41.1 22.2-60.6 9.9 3.1 19.3 6.5 28.1 10.2 35.4 15.1 58.3 34.9 58.3 50.6-.1 15.7-23 35.6-58.4 50.6zM320.8 78.4z"/>
        <circle cx="420.9" cy="296.5" r="45.7"/>
        <path d="M520.5 78.1z"/>
    </g>
</svg> -->
<svg width="300" height="261" viewBox="0 0 300 261" fill="none" xmlns="http://www.w3.org/2000/svg">
    <path
        d="M250.69 5.802c-30.304-13.898-54.287 4.054-62.491 14.768a89.55 89.55 0 0126.782 12.013C212.81 7.972 251.173 6.526 250.69 5.802zM299.911 27.034c-11.388 33.972-41.332 40.052-54.881 38.846a89.352 89.352 0 017.607 20.026c37.657-13.511 48.48-59.595 47.274-58.872zM299.911 166.975c-9.072-35.13-34.209-45.199-45.644-45.842a89.338 89.338 0 01-3.577 14.923c31.367-5.827 49.221 33.091 49.221 30.919zM255.275 192.068c-14.863-4.439-17.972-22.438-17.669-30.883a90.515 90.515 0 01-12.491 13.66c2.171 25.725 29.152 29.529 29.152 30.252 16.661-7.238 27.548 13.512 28.272 11.34-4.632-17.951-20.106-23.725-27.264-24.369zM77.919 85.906c-4.82 3.137-19.479 7.528-39.553 0-.723 0-25.288-11.078-38.327 5.262.862-.778 15.792-11.016 38.327 2.46 0 .24 14.917 7.72 37.377 4.825a89.701 89.701 0 012.176-12.547zM89.922 156.842c-12.119 16.648-40.891 49.896-59.036 49.703-.723.241 12.305 8.284 68.523-37.599a90.367 90.367 0 01-9.487-12.104z"
        fill="#ECA439" />
    <path
        d="M188.199 20.57a90.136 90.136 0 00-22.921-2.945c-42.217 0-77.644 29.068-87.36 68.281a89.701 89.701 0 00-2.175 12.547 91.033 91.033 0 00-.462 9.168c0 18.167 5.383 35.076 14.64 49.221a90.367 90.367 0 009.488 12.104c10.426 11.194 23.671 19.726 38.605 24.468a89.42 89.42 0 0013.994 3.232c4.33.64 8.762.972 13.27.972 22.972 0 43.934-8.607 59.837-22.773a90.515 90.515 0 0012.491-13.66 89.735 89.735 0 0013.084-25.129 89.338 89.338 0 003.577-14.923 90.67 90.67 0 001.008-13.512c0-7.487-.915-14.76-2.638-21.715a89.352 89.352 0 00-7.607-20.026 90.413 90.413 0 00-30.049-33.297 89.55 89.55 0 00-26.782-12.013z"
        fill="#ECA439" />
    <path
        d="M138.014 193.414c-33.538 26.643-16.89 45.945-27.265 66.936 16.113-24.878 11.34-49.918 41.259-63.704a89.42 89.42 0 01-13.994-3.232zM67.56 10.012c30.305-13.897 54.288 4.055 62.492 14.768l-12.225 6.356-12.145 9.047c2.172-24.611-38.604-29.447-38.121-30.17z"
        fill="#ECA439" />
    <ellipse cx="121.607" cy="102.796" rx="11.099" ry="11.823" fill="#E4E3E3" />
    <ellipse cx="182.891" cy="100.383" rx="11.099" ry="11.823" fill="#E4E3E3" />
    <ellipse cx="122.572" cy="105.691" rx="3.86" ry="4.102" fill="#343131" />
    <ellipse cx="180.961" cy="101.83" rx="3.86" ry="4.102" fill="#343131" />
    <ellipse cx="159.487" cy="148.156" rx="37.881" ry="8.445" fill="#C98A2C" />
    <ellipse cx="159.487" cy="148.156" rx="30.642" ry="6.997" fill="#E4E3E3" /></svg>